<svg version="1.1" xmlns="http://www.w3.org/2000/svg" viewBox="0 0 1024 1024" width="100%" height="100%">
	<path fill="#00FF9D" d="M779.447876,547.392151 
	C762.259460,563.369751 741.719238,566.481934 720.039062,563.350342 
	C682.062866,557.864807 659.535461,534.481506 650.236511,498.464264 
	C641.254761,463.675293 644.264465,429.268921 660.200256,396.853271 
	C674.762939,367.230713 699.397339,350.587128 732.010620,346.128418 
	C753.722839,343.160004 775.302185,344.030182 795.840332,352.475800 
	C821.595581,363.066711 837.634705,382.898468 847.045166,408.567017 
	C855.655762,432.053802 859.376038,456.556396 860.671997,481.339722 
	C862.661255,519.381531 860.920349,557.270508 852.074341,594.514038 
	C848.182617,610.899048 842.383667,626.638306 832.899231,640.736389 
	C819.483398,660.678040 801.278564,673.503540 777.432129,678.211487 
	C756.484436,682.347168 735.650757,682.016602 715.105103,676.606812 
	C678.734009,667.030090 658.509583,639.602051 653.074402,603.370300 
	C652.757263,601.256226 652.641113,599.112000 652.330872,595.960876 
	C676.498718,595.960876 700.376587,595.960876 724.685303,595.960876 
	C725.282898,598.356079 725.876892,601.591553 726.900146,604.684998 
	C730.606079,615.887573 738.512390,622.031616 749.576050,622.520081 
	C760.252930,622.991394 768.602600,617.462158 773.411011,606.944153 
	C779.600464,593.405151 781.490967,578.913025 782.921448,564.337585 
	C783.600952,557.413879 783.814819,550.444458 784.313538,542.285767 
	C782.265503,544.448120 780.989136,545.795715 779.447876,547.392151 
	M774.123291,417.407532 
	C769.944275,409.223511 763.067566,405.241852 754.072754,404.873901 
	C740.162048,404.304901 730.467224,411.095459 726.179871,425.645325 
	C720.077759,446.353729 719.820190,467.369995 726.087891,488.107117 
	C729.032471,497.849274 735.369141,505.017822 746.008240,507.026215 
	C760.137939,509.693604 771.059998,503.875854 777.000793,490.460999 
	C783.728760,475.268524 783.144531,459.173706 781.359863,443.302307 
	C780.396423,434.734375 776.876587,426.453918 774.123291,417.407532 
	M600.499878,349.912323 
	C537.282532,349.912323 474.065155,349.912323 410.979675,349.912323 
	C410.979675,459.272552 410.979675,567.843018 410.979675,676.578857 
	C438.303986,676.578857 465.361511,676.578857 492.919739,676.578857 
	C492.919739,632.251282 492.919739,588.208801 492.919739,543.767578 
	C530.827148,543.767578 568.234985,543.767578 605.783447,543.767578 
	C605.783447,523.495361 605.783447,503.627258 605.783447,483.411499 
	C568.036438,483.411499 530.631042,483.411499 493.088623,483.411499 
	C493.088623,458.989807 493.088623,434.918549 493.088623,410.387756 
	C535.921875,410.387756 578.490295,410.387756 621.241028,410.387756 
	C621.241028,390.019012 621.241028,370.111389 621.241028,349.911591 
	C614.472412,349.911591 607.986084,349.911591 600.499878,349.912323 
	M244.500031,349.906342 
	C218.055283,349.906342 191.610519,349.906342 165.090256,349.906342 
	C165.090256,459.047699 165.090256,567.737671 165.090256,676.554688 
	C192.306839,676.554688 219.193970,676.554688 246.637299,676.554688 
	C246.637299,632.188965 246.637299,588.149414 246.637299,543.647461 
	C284.600006,543.647461 322.006866,543.647461 359.551941,543.647461 
	C359.551941,523.436340 359.551941,503.695129 359.551941,483.318726 
	C321.725494,483.318726 284.188080,483.318726 246.645172,483.318726 
	C246.645172,458.760742 246.645172,434.840637 246.645172,410.283142 
	C289.469574,410.283142 331.990601,410.283142 374.572693,410.283142 
	C374.572693,389.881409 374.572693,370.120148 374.572693,349.906616 
	C331.383850,349.906616 288.441956,349.906616 244.500031,349.906342 z" />
	
	<path fill="#00FF9D" d="M600.999817,349.911957 
	C607.986084,349.911591 614.472412,349.911591 621.241028,349.911591 
	C621.241028,370.111389 621.241028,390.019012 621.241028,410.387756 
	C578.490295,410.387756 535.921875,410.387756 493.088623,410.387756 
	C493.088623,434.918549 493.088623,458.989807 493.088623,483.411499 
	C530.631042,483.411499 568.036438,483.411499 605.783447,483.411499 
	C605.783447,503.627258 605.783447,523.495361 605.783447,543.767578 
	C568.234985,543.767578 530.827148,543.767578 492.919739,543.767578 
	C492.919739,588.208801 492.919739,632.251282 492.919739,676.578857 
	C465.361511,676.578857 438.303986,676.578857 410.979675,676.578857 
	C410.979675,567.843018 410.979675,459.272552 410.979675,349.912323 
	C474.065155,349.912323 537.282532,349.912323 600.999817,349.911957 z" />
	
	<path fill="#00FF9D" d="M245.000031,349.906494 
	C288.441956,349.906616 331.383850,349.906616 374.572693,349.906616 
	C374.572693,370.120148 374.572693,389.881409 374.572693,410.283142 
	C331.990601,410.283142 289.469574,410.283142 246.645172,410.283142 
	C246.645172,434.840637 246.645172,458.760742 246.645172,483.318726 
	C284.188080,483.318726 321.725494,483.318726 359.551941,483.318726 
	C359.551941,503.695129 359.551941,523.436340 359.551941,543.647461 
	C322.006866,543.647461 284.600006,543.647461 246.637299,543.647461 
	C246.637299,588.149414 246.637299,632.188965 246.637299,676.554688 
	C219.193970,676.554688 192.306839,676.554688 165.090256,676.554688 
	C165.090256,567.737671 165.090256,459.047699 165.090256,349.906342 
	C191.610519,349.906342 218.055283,349.906342 245.000031,349.906494 z" />
</svg>